PathFileType	4	(X/Y/Z)	D:\Share\Shared_Data\Ergonomics\Sit To Stand Pertubation\S3\Unperturbed.trc
DataRate	CameraRate	NumFrames	NumMarkers	Units	OrigDataRate	OrigDataStartFrame	OrigNumFrames	
100	100	12	18	m	100	4796	191
Frame#	Time	R_Thigh			R_ASIS			R_Pelvis			V_Sacral			L_Pelvis			L_ASIS			Clavical			R_Acromium			L_Acromium			Sternum			Torso			R_Thigh_Med			R_Thigh_Lat			R_Shank_Med			R_Shank_Lat			R_Shank			R_Heel			R_Toe			
		X1	Y1	Z1	X2	Y2	Z2	X3	Y3	Z3	X4	Y4	Z4	X5	Y5	Z5	X6	Y6	Z6	X7	Y7	Z7	X8	Y8	Z8	X9	Y9	Z9	X10	Y10	Z10	X11	Y11	Z11	X12	Y12	Z12	X13	Y13	Z13	X14	Y14	Z14	X15	Y15	Z15	X16	Y16	Z16	X17	Y17	Z17	X18	Y18	Z18	

4796	47.95	0.16506868	0.58421674	0.1217218	0.056344868	0.61787921	0.14730669	-0.049759518	0.65916095	0.19987032	-0.14202292	0.70242261	0.01049276	-0.035125999	0.67703168	-0.19604034	0.066476707	0.62418231	-0.14146143	0.22670268	0.97879022	-0.0012068424	0.20168535	1.0572399	0.16135995	0.22551093	1.0542147	-0.15205327	0.21467674	0.89442297	0.0037523878	0.22499557	0.96169257	-0.064748001	0.34347296	0.46599524	0.10480916	0.31874023	0.44143689	0.21970207	0.25905002	0.1075572	0.098734108	0.23313803	0.097344437	0.17540291	0.25699139	0.26720929	0.21110362	0.17975427	0.05039518	0.12057607	0.39654187	0.05887574	0.13982382
4797	47.96	0.16818034	0.58529785	0.12239971	0.061385689	0.61823297	0.14728412	-0.043665573	0.66166364	0.2002182	-0.13586067	0.70623132	0.01063133	-0.029303122	0.67908569	-0.19628337	0.071849289	0.62416968	-0.14162383	0.23649185	0.97680988	-0.0015270981	0.21327509	1.0556931	0.16051912	0.23755548	1.0525352	-0.15165491	0.22371254	0.89235156	0.0033531506	0.23461559	0.95962579	-0.064705353	0.34557855	0.46547595	0.10490083	0.32068283	0.44057394	0.21960922	0.25952399	0.10729165	0.098588943	0.23342252	0.097277588	0.17516591	0.25818704	0.26680139	0.2108562	0.17989795	0.050458382	0.12051166	0.39679111	0.058397461	0.13989369
4798	47.97	0.17156186	0.58633813	0.12297233	0.066538055	0.61892365	0.14722409	-0.037458702	0.66435382	0.20058759	-0.1296602	0.71004333	0.010746963	-0.023417616	0.68126324	-0.19649907	0.077356644	0.62460773	-0.14165341	0.24609447	0.97508167	-0.0018593149	0.22475429	1.0542811	0.15970029	0.24920778	1.0510162	-0.151297	0.23270613	0.89062512	0.0030465019	0.24407979	0.95782159	-0.064666763	0.34790137	0.4648602	0.10476327	0.3228855	0.43968481	0.2193152	0.25995535	0.10707516	0.098212074	0.23374135	0.0972201	0.1748851	0.25953928	0.26641745	0.21047888	0.18002504	0.050513485	0.12045318	0.39704819	0.05788678	0.13991547
4799	47.98	0.17517656	0.58731488	0.12336591	0.071740913	0.61993579	0.14714772	-0.03121629	0.6671911	0.20096935	-0.12347211	0.71382983	0.010814722	-0.017509794	0.68356244	-0.19668387	0.082917473	0.62552063	-0.1415594	0.25544342	0.97364734	-0.0022054377	0.23602762	1.0530513	0.15889372	0.2604006	1.0496951	-0.15099623	0.24156058	0.88927179	0.0028174963	0.253308	0.9563197	-0.064646912	0.3504165	0.4641713	0.10441402	0.32533475	0.43878766	0.21883701	0.26033243	0.10691221	0.097627129	0.23407822	0.097177437	0.17456934	0.2610311	0.26607248	0.20998274	0.18013075	0.050523533	0.12037205	0.39730579	0.057378319	0.1399001
4800	47.99	0.17899307	0.58821661	0.12354312	0.076943474	0.62124634	0.14706914	-0.025006826	0.67013409	0.20135403	-0.11734252	0.71756793	0.010812834	-0.011621108	0.68598462	-0.19684245	0.088461319	0.62689551	-0.141368	0.26447302	0.97254974	-0.0025680444	0.24699846	1.0520573	0.15809021	0.27107516	1.0486171	-0.15076694	0.25017566	0.88831219	0.00263621	0.26222775	0.95516205	-0.064658264	0.35309937	0.46345135	0.10389754	0.32800644	0.43789679	0.21820418	0.26065988	0.10679125	0.096911171	0.23441028	0.097149437	0.17423596	0.26263712	0.26577734	0.20939157	0.18021162	0.05050349	0.12028325	0.39755698	0.056901886	0.13986339
4801	48	0.18299686	0.58905035	0.12350851	0.082107002	0.62283142	0.14699321	-0.018885794	0.67314825	0.20173303	-0.11131107	0.72124786	0.010730832	-0.0057930384	0.68853503	-0.19698267	0.093940117	0.62869189	-0.14111302	0.27312943	0.97183337	-0.0029499319	0.25757751	1.0513541	0.15728802	0.28118155	1.047837	-0.15062254	0.25846515	0.88776501	0.0024667943	0.27078067	0.9543916	-0.064711037	0.35592575	0.46275244	0.10327599	0.33086523	0.43702069	0.21745294	0.26095114	0.10669108	0.096165588	0.23471028	0.097131508	0.17390579	0.26432349	0.26553644	0.20873685	0.18026772	0.050468445	0.12020059	0.39779529	0.05647823	0.13981995
4802	48.01	0.18718829	0.5898446	0.12330094	0.087206161	0.62467212	0.14691663	-0.012892418	0.67621143	0.20209804	-0.10540832	0.72487836	0.010573336	-6.5171458e-05	0.69122308	-0.19711066	0.099320076	0.63085693	-0.14082764	0.28138162	0.97154584	-0.0033528819	0.26768839	1.0509972	0.15649631	0.29067935	1.0474172	-0.15057526	0.26637292	0.88765234	0.0022772539	0.27892749	0.95405206	-0.064813812	0.35886993	0.46212418	0.10261717	0.33386603	0.43616266	0.21662015	0.26121921	0.10659445	0.095472885	0.23495764	0.097118423	0.17359734	0.26604993	0.26534589	0.2080522	0.18030487	0.05038438	0.12009339	0.39801562	0.056118034	0.13978018
4803	48.02	0.19156903	0.59064136	0.12297958	0.092228622	0.62675854	0.14683206	-0.0070494924	0.67931653	0.20243889	-0.099652412	0.7284928	0.010363892	0.0055274248	0.69406238	-0.19722829	0.10456937	0.63333197	-0.14053909	0.28922211	0.97173541	-0.0037764304	0.27726804	1.0510428	0.15573396	0.29953854	1.0474269	-0.15063504	0.27388055	0.8880058	0.0020471191	0.28664978	0.9541864	-0.064973557	0.36190433	0.46159613	0.10197879	0.33695944	0.43532278	0.21573918	0.26147217	0.10649506	0.094877106	0.23514702	0.097106842	0.17332306	0.26777487	0.26519495	0.20736832	0.18033212	0.050218414	0.11992918	0.39821518	0.055823208	0.13974962
4804	48.03	0.19612886	0.59148535	0.12260996	0.097173203	0.62909003	0.14673201	-0.0013656758	0.68247369	0.20274263	-0.094046326	0.7321618	0.010162091	0.010957725	0.69707019	-0.19733217	0.10964416	0.63604761	-0.1402626	0.29665781	0.97244617	-0.0042173457	0.28626483	1.0515486	0.15502657	0.30774051	1.0479354	-0.15080823	0.28100064	0.88886554	0.0017693099	0.29394846	0.95483441	-0.065194847	0.36500247	0.46115381	0.10138831	0.34009619	0.43450006	0.21483771	0.2617146	0.1063941	0.094393341	0.23528665	0.09709594	0.17308771	0.2694632	0.26507092	0.20670966	0.18035722	0.049998375	0.11972664	0.39839301	0.055588905	0.13973019
4805	48.04	0.20084207	0.592414	0.12225157	0.10204717	0.63167365	0.1466109	0.0041613555	0.68571002	0.20299507	-0.088578148	0.73599701	0.010072172	0.016210119	0.70026575	-0.19741545	0.11448302	0.63892047	-0.13999777	0.30370142	0.97371417	-0.0046697741	0.29463873	1.0525717	0.15440126	0.31527963	1.0490061	-0.15109695	0.28776334	0.8902735	0.0014459743	0.30083911	0.95603052	-0.065478485	0.36814331	0.46072714	0.10083283	0.34322958	0.43369382	0.21393712	0.26194858	0.10629443	0.094022369	0.23539182	0.097088333	0.17288692	0.27109039	0.26496307	0.2060928	0.18038432	0.049786278	0.1195352	0.39854898	0.055405994	0.13972093
4806	48.05	0.20567128	0.59345294	0.12194711	0.10686176	0.63452185	0.14646455	0.0095420341	0.6890647	0.2031834	-0.083228073	0.74010876	0.010188683	0.021282228	0.70366809	-0.19747035	0.11903741	0.64188483	-0.13973726	0.31036783	0.97556628	-0.0051261177	0.30236237	1.0541647	0.15388033	0.32216544	1.0506891	-0.15149934	0.2942037	0.89226691	0.001081928	0.30734695	0.95780127	-0.065820824	0.37130457	0.46022961	0.10027889	0.34631662	0.43290521	0.21305206	0.26217508	0.10619659	0.093760254	0.23548013	0.097090485	0.17270844	0.27264194	0.26486505	0.20552533	0.18041492	0.049627224	0.11939236	0.39868311	0.055263596	0.13971849
4807	48.06	0.21057431	0.59461627	0.12171664	0.11162595	0.63764911	0.14628856	0.014792994	0.69258411	0.20329941	-0.077978943	0.74454242	0.010510592	0.026184946	0.70729425	-0.19749013	0.12331986	0.64494153	-0.13948187	0.31667178	0.97801996	-0.0055784383	0.3094234	1.0563719	0.15347588	0.32842447	1.0530156	-0.15200803	0.30035083	0.89487128	0.00067910039	0.3134989	0.96016461	-0.066214958	0.37444791	0.45963174	0.099709084	0.34931924	0.43213791	0.21219098	0.26239554	0.10609747	0.093604248	0.23556754	0.097109734	0.17253751	0.27411081	0.26477478	0.20500648	0.18044878	0.049539528	0.11931437	0.39879538	0.055150982	0.13971883
